<svg id="Expanded" xmlns="http://www.w3.org/2000/svg" viewBox="0 0 96 96"><path d="M65.35,84.61H30.65a1,1,0,1,1,0-2h34.7a1,1,0,0,1,0,2Z"/><path d="M89,76.39H7a5,5,0,0,1-5-5v-55a5,5,0,0,1,5-5H89a5,5,0,0,1,5,5v55A5,5,0,0,1,89,76.39Zm-82-63a3,3,0,0,0-3,3v55a3,3,0,0,0,3,3H89a3,3,0,0,0,3-3v-55a3,3,0,0,0-3-3Z"/><path d="M59.32,84.61H36.68a1,1,0,0,1-.87-1.48l4.57-8.22a1,1,0,0,1,.88-.52H54.74a1,1,0,0,1,.88.52l4.57,8.22a1,1,0,0,1-.87,1.48Zm-20.94-2H57.62l-3.46-6.22H41.84Z"/><path d="M93,67.26H3a1,1,0,0,1,0-2H93a1,1,0,0,1,0,2Z"/><path d="M28,59.45H10.61a1,1,0,0,1,0-2H28a1,1,0,1,1,0,2Z"/><path d="M19.32,53.85H10.61a1,1,0,0,1,0-2h8.71a1,1,0,0,1,0,2Z"/><path d="M11.66,38.31a1,1,0,0,1-.84-.44,11.42,11.42,0,1,1,19,0,1,1,0,0,1-1.67-1.11,9.43,9.43,0,1,0-15.67,0,1,1,0,0,1-.28,1.38A.94.94,0,0,1,11.66,38.31Z"/><path d="M20.32,36.72a2.88,2.88,0,1,1,2.88-2.88A2.89,2.89,0,0,1,20.32,36.72Zm0-3.76a.88.88,0,1,0,.88.88A.88.88,0,0,0,20.32,33Z"/><path d="M21.65,33.51a1,1,0,0,1-.71-.29,1,1,0,0,1,0-1.42l4-4a1,1,0,0,1,1.42,1.42l-4,4A1,1,0,0,1,21.65,33.51Z"/><path d="M86.1,59.45H52.75a1,1,0,0,1,0-2H86.1a1,1,0,0,1,0,2Z"/><path d="M82.36,59.45a1,1,0,0,1-1-1V35.9a1,1,0,1,1,2,0V58.45A1,1,0,0,1,82.36,59.45Z"/><path d="M73.81,59.45a1,1,0,0,1-1-1V43.79a1,1,0,1,1,2,0V58.45A1,1,0,0,1,73.81,59.45Z"/><path d="M65.27,59.45a1,1,0,0,1-1-1V39.75a1,1,0,0,1,2,0v18.7A1,1,0,0,1,65.27,59.45Z"/><path d="M56.73,59.45a1,1,0,0,1-1-1V48.2a1,1,0,0,1,2,0V58.45A1,1,0,0,1,56.73,59.45Z"/><path d="M56.73,40.75a3.35,3.35,0,1,1,3.35-3.35A3.36,3.36,0,0,1,56.73,40.75Zm0-4.7a1.35,1.35,0,1,0,1.35,1.35A1.36,1.36,0,0,0,56.73,36.05Z"/><path d="M65.27,31.94a3.35,3.35,0,1,1,3.35-3.35A3.35,3.35,0,0,1,65.27,31.94Zm0-4.7a1.35,1.35,0,1,0,1.35,1.35A1.35,1.35,0,0,0,65.27,27.24Z"/><path d="M73.81,39.86a3.35,3.35,0,1,1,3.35-3.35A3.35,3.35,0,0,1,73.81,39.86Zm0-4.7a1.35,1.35,0,1,0,1.35,1.35A1.35,1.35,0,0,0,73.81,35.16Z"/><path d="M82.36,31.49a3.35,3.35,0,1,1,3.34-3.35A3.35,3.35,0,0,1,82.36,31.49Zm0-4.7a1.35,1.35,0,1,0,1.34,1.35A1.35,1.35,0,0,0,82.36,26.79Z"/><path d="M75.49,35.87a1,1,0,0,1-.71-.3,1,1,0,0,1,0-1.42L80,29.07a1,1,0,0,1,1.41,0,1,1,0,0,1,0,1.42l-5.19,5.08A1,1,0,0,1,75.49,35.87Z"/><path d="M72.09,35.92a1,1,0,0,1-.68-.27l-5.1-4.73a1,1,0,0,1,1.36-1.47l5.1,4.73a1,1,0,0,1,.06,1.42A1,1,0,0,1,72.09,35.92Z"/><path d="M58.37,36.72a1,1,0,0,1-.7-.28,1,1,0,0,1,0-1.42l5.27-5.44A1,1,0,0,1,64.36,31l-5.28,5.44A1,1,0,0,1,58.37,36.72Z"/></svg>